<?xml version="1.0" standalone="no"?>
<!DOCTYPE svg PUBLIC "-//W3C//DTD SVG 20010904//EN"
 "http://www.w3.org/TR/2001/REC-SVG-20010904/DTD/svg10.dtd">
<svg version="1.0" xmlns="http://www.w3.org/2000/svg"
 width="1024.000000pt" height="433.000000pt" viewBox="0 0 1024.000000 433.000000"
 preserveAspectRatio="xMidYMid meet">
<metadata>
Created by potrace 1.15, written by Peter Selinger 2001-2017
</metadata>
<g transform="translate(0.000000,433.000000) scale(0.100000,-0.100000)"
fill="#000000" stroke="none">
<path d="M4960 4324 c-578 -55 -979 -142 -1385 -304 -346 -138 -568 -266
-1116 -646 -304 -211 -412 -278 -589 -368 -262 -134 -497 -223 -755 -289 -267
-68 -282 -70 -717 -74 l-398 -5 0 -1319 0 -1319 5120 0 5120 0 0 1319 0 1319
-397 5 c-436 4 -451 6 -718 74 -258 66 -493 155 -755 289 -177 90 -285 157
-589 368 -548 380 -770 508 -1116 646 -345 138 -766 239 -1185 285 -146 16
-437 27 -520 19z m356 -164 c485 -39 960 -148 1344 -309 284 -120 525 -259
923 -534 444 -306 548 -372 746 -471 305 -153 675 -279 996 -337 102 -19 166
-23 438 -27 l317 -4 0 -1159 0 -1159 -4960 0 -4960 0 0 1159 0 1159 318 4
c271 4 335 8 437 27 345 63 729 197 1052 366 157 83 260 146 490 305 524 360
656 444 873 554 397 203 849 337 1350 401 268 34 434 41 636 25z"/>
<path d="M4985 4104 c-498 -39 -951 -138 -1345 -295 -104 -41 -353 -163 -452
-220 -126 -73 -284 -176 -583 -382 -420 -290 -555 -370 -819 -487 -301 -133
-555 -213 -856 -271 -95 -18 -166 -23 -410 -28 l-295 -6 -3 -1097 -2 -1098
4900 0 4900 0 -2 1097 -3 1098 -295 6 c-243 5 -315 10 -410 28 -339 64 -655
170 -975 326 -196 96 -362 197 -653 398 -535 370 -734 489 -1033 616 -329 139
-776 251 -1184 295 -148 16 -396 26 -480 20z m234 -131 c16 -32 243 -634 240
-637 -8 -7 -489 7 -489 14 0 4 15 50 34 101 l34 94 81 -4 c45 -2 81 -1 81 2 0
10 -103 272 -109 280 -4 4 -48 -104 -98 -240 l-90 -248 -89 -6 c-49 -4 -90 -5
-92 -4 -2 1 48 148 111 326 l113 324 90 3 c49 1 100 4 114 6 53 7 60 5 69 -11z
m414 -14 c40 -6 77 -12 83 -14 7 -2 -16 -80 -61 -207 -40 -112 -71 -206 -69
-209 2 -3 53 -16 113 -29 110 -23 111 -23 104 -49 -15 -63 -51 -156 -60 -154
-5 1 -57 7 -115 14 l-106 12 -55 147 -55 148 53 148 c72 202 73 204 85 204 6
0 44 -5 83 -11z m-923 -29 c64 -33 94 -81 98 -159 5 -93 -27 -142 -126 -195
-46 -24 -72 -43 -72 -54 0 -9 11 -53 25 -97 36 -116 38 -111 -50 -120 -41 -4
-78 -7 -82 -6 -9 0 -82 247 -82 279 -1 37 14 57 79 98 58 37 80 69 65 93 -8
14 -44 14 -100 -1 l-45 -12 -85 -256 -85 -255 -100 -26 c-55 -15 -100 -26
-100 -25 0 0 49 154 109 341 63 196 115 341 122 344 8 2 77 19 154 37 166 39
221 41 275 14z m1479 -96 c2 -2 -25 -96 -59 -209 -35 -113 -61 -208 -57 -211
3 -3 65 -24 139 -45 73 -22 138 -41 145 -43 8 -4 4 -26 -14 -78 -14 -40 -29
-76 -32 -80 -3 -4 -58 8 -121 27 -64 18 -172 45 -240 61 -69 15 -126 28 -127
28 -2 1 171 534 192 593 3 8 27 5 87 -14 46 -14 85 -27 87 -29z m-2240 -56 c0
-24 -8 -94 -18 -155 -19 -124 -18 -127 41 -97 l30 16 -7 -64 c-7 -67 -16 -80
-71 -100 l-31 -11 -17 -121 c-10 -66 -18 -121 -19 -122 -5 -4 -188 -84 -191
-84 -2 0 -1 10 1 23 2 12 10 66 17 120 13 95 12 98 -5 93 -62 -20 -59 -20 -54
10 2 16 7 46 10 67 5 32 12 40 45 53 37 15 38 17 45 75 4 33 5 62 2 65 -3 3
-45 -11 -93 -31 -49 -21 -111 -46 -137 -56 l-48 -19 7 77 c4 43 10 87 14 98 5
14 69 45 231 112 123 51 230 93 237 93 8 0 12 -15 11 -42z m2492 -29 c9 -4 33
-50 54 -101 21 -51 42 -97 46 -101 4 -5 19 28 34 72 15 45 30 81 34 81 15 0
156 -51 164 -59 5 -5 -31 -130 -89 -304 l-98 -294 -90 40 c-50 22 -93 41 -95
43 -1 1 9 38 23 82 l26 79 -100 257 c-55 142 -100 262 -100 267 0 8 153 -42
191 -62z m-2281 -1284 l0 -405 -50 0 -50 0 0 405 0 405 50 0 50 0 0 -405z
m230 0 l0 -405 -50 0 -50 0 0 405 0 405 50 0 50 0 0 -405z m1770 265 l0 -79
98 -3 97 -3 3 -42 3 -43 -100 0 -101 0 0 -175 c0 -193 8 -229 56 -241 27 -7
98 -1 127 11 16 7 18 3 15 -41 l-3 -49 -56 -9 c-76 -12 -142 -1 -180 32 -53
44 -59 71 -59 282 l0 190 -36 0 -35 0 3 43 c3 39 5 42 36 45 l32 3 0 80 0 79
50 0 50 0 0 -80z m-1327 -86 c63 -21 131 -95 151 -165 18 -60 21 -186 6 -241
-32 -113 -130 -188 -247 -188 -85 0 -134 15 -182 57 -130 111 -126 399 6 500
69 53 176 68 266 37z m1013 -8 c81 -38 121 -108 126 -222 l3 -69 -214 -3 -214
-2 6 -46 c6 -53 46 -110 98 -137 27 -15 50 -17 114 -14 73 4 104 13 188 55 4
2 7 -21 7 -51 l0 -54 -72 -22 c-191 -56 -357 0 -418 141 -18 42 -23 71 -23
138 1 123 33 198 109 256 77 59 200 72 290 30z m-666 -28 l5 -38 45 30 c51 34
122 52 174 43 36 -6 36 -6 36 -56 l0 -50 -48 6 c-61 7 -122 -6 -172 -38 l-40
-25 -2 -207 -3 -208 -50 0 -50 0 -3 280 c-1 154 0 286 3 293 3 9 20 12 52 10
47 -3 48 -4 53 -40z m-3625 -247 c389 -81 699 -374 802 -758 23 -85 26 -119
27 -253 1 -118 -3 -174 -18 -234 -90 -386 -382 -687 -764 -787 -101 -27 -304
-36 -409 -19 -753 120 -1130 963 -718 1602 151 233 424 412 695 457 99 16 288
12 385 -8z m7597 -9 c233 -63 433 -197 579 -390 69 -91 143 -247 175 -367 24
-88 27 -119 27 -255 0 -135 -4 -168 -26 -252 -83 -314 -312 -583 -600 -705
-152 -64 -223 -77 -412 -78 -154 0 -179 3 -267 27 -180 50 -317 129 -452 258
-332 319 -417 794 -216 1205 142 292 401 496 720 566 117 26 359 21 472 -9z
m-5081 -431 c80 -41 86 -43 149 -38 43 4 99 19 165 46 55 22 112 41 126 41 15
0 54 -18 88 -41 34 -23 79 -45 99 -50 44 -10 134 4 198 31 l45 20 -3 -103 -3
-102 -68 -34 c-91 -46 -153 -46 -254 -2 -96 42 -134 40 -249 -9 -127 -54 -169
-54 -306 2 -136 54 -182 55 -293 3 -103 -48 -178 -57 -217 -25 -27 21 -28 24
-28 125 l0 103 63 -5 c57 -4 69 -1 157 42 90 43 99 45 171 43 68 -3 86 -8 160
-47z m1199 -110 c0 -152 -6 -175 -36 -150 -11 9 -18 9 -26 1 -18 -18 -73 -14
-97 6 -48 38 -45 148 5 191 23 19 36 22 71 18 l43 -5 0 44 c0 37 3 44 20 44
19 0 20 -7 20 -149z m201 40 c19 -20 29 -40 29 -60 l0 -31 -80 0 c-87 0 -96
-8 -62 -50 20 -25 75 -30 111 -11 19 10 21 9 21 -12 0 -27 -21 -37 -78 -37
-69 0 -112 46 -112 118 1 99 104 149 171 83z m211 18 c3 -9 9 -9 25 0 29 15
65 14 88 -3 17 -12 23 -12 47 0 15 8 40 14 57 14 48 0 61 -29 61 -138 0 -84
-2 -93 -17 -90 -15 3 -19 18 -23 93 -5 89 -5 90 -32 93 -15 2 -36 -2 -48 -8
-18 -9 -20 -20 -20 -96 0 -76 -2 -85 -17 -82 -15 3 -19 18 -23 93 -5 89 -5 90
-32 93 -15 2 -36 -2 -48 -8 -18 -9 -20 -20 -20 -96 0 -76 -2 -85 -17 -82 -16
3 -18 17 -21 102 -1 55 0 106 2 113 7 16 33 17 38 2z m473 -14 c23 -22 25 -32
25 -110 0 -69 -3 -87 -16 -92 -9 -3 -19 0 -24 7 -6 9 -13 9 -28 1 -53 -28
-122 5 -122 59 0 40 38 70 98 77 50 6 67 22 41 38 -13 9 -71 9 -98 0 -17 -5
-21 -2 -21 13 0 25 12 30 73 31 38 1 53 -4 72 -24z m-3531 -210 l56 -25 2
-542 3 -543 110 -8 c60 -5 111 -10 112 -11 1 -1 -5 -41 -14 -89 l-17 -87 -158
0 -158 0 0 665 c0 366 2 665 4 665 2 0 29 -11 60 -25z m5020 -10 c24 -24 28
-83 24 -385 -3 -248 -5 -289 -20 -317 -10 -17 -27 -34 -38 -38 -15 -5 -18 -13
-14 -33 7 -41 74 -505 74 -514 0 -4 -29 -8 -65 -8 -36 0 -65 4 -65 8 0 5 -22
160 -50 345 -27 185 -50 341 -50 346 0 5 22 15 48 22 l49 12 7 170 c3 93 5
172 2 174 -2 2 -30 -7 -62 -20 l-59 -23 -6 -515 c-3 -283 -7 -515 -7 -516 -1
-2 -29 -3 -62 -3 l-60 0 0 218 c0 119 3 382 7 584 l6 366 66 28 c36 15 106 47
155 71 49 24 93 43 97 43 4 0 14 -7 23 -15z m-4658 -152 l41 -17 7 -150 c3
-82 6 -222 6 -311 0 -89 3 -236 7 -328 l6 -166 110 -7 109 -7 -6 -41 c-4 -22
-11 -58 -17 -78 l-10 -38 -158 0 -158 0 -6 413 c-4 226 -7 490 -7 586 0 194
-8 178 76 144z m4158 -70 c5 -24 103 -841 122 -1010 l7 -63 -153 0 -152 0 7
28 c3 15 13 50 21 78 l15 51 51 6 c28 4 53 8 55 11 2 2 -8 110 -23 240 -15
129 -30 233 -33 230 -3 -2 -26 -134 -52 -292 -27 -158 -51 -302 -54 -319 l-6
-33 -64 0 -64 0 4 28 c3 15 14 78 26 141 11 63 49 285 84 494 35 208 66 381
68 383 5 5 118 52 129 53 3 1 9 -11 12 -26z m-3680 -101 c184 -62 178 -54 187
-260 4 -86 10 -269 14 -407 7 -247 7 -250 -15 -277 l-21 -28 -148 0 c-135 0
-150 2 -166 20 -25 28 -32 127 -40 576 -8 380 -8 381 14 403 11 11 24 21 29
20 4 0 70 -22 146 -47z m3366 -36 c6 -16 -12 -911 -19 -933 -1 -2 -29 -3 -64
-3 l-63 0 3 113 c15 465 21 692 19 694 -1 1 -20 -3 -42 -8 l-41 -11 -7 -261
c-3 -144 -9 -322 -13 -394 l-6 -133 -65 0 -65 0 6 107 c4 60 10 230 13 380 l7
272 -37 -9 c-21 -4 -39 -10 -41 -12 -4 -4 -25 -573 -25 -674 l0 -64 -66 0 -66
0 7 233 c4 127 10 317 14 421 l6 190 200 51 c110 29 223 59 250 67 56 17 81
11 95 -26z m-3005 -61 c265 -60 246 -39 253 -287 5 -199 1 -223 -43 -234 -14
-3 -25 -9 -25 -13 0 -3 20 -81 44 -174 l44 -167 -64 0 -63 0 -15 52 c-9 29
-38 142 -65 252 l-49 198 54 -7 54 -6 0 93 c0 125 -4 135 -48 143 -21 3 -48 9
-61 12 l-24 6 7 -224 c3 -123 9 -290 13 -371 l6 -148 -67 0 -66 0 0 45 c0 60
-18 622 -25 759 -3 83 -2 107 8 103 6 -2 66 -17 132 -32z m469 -90 c93 -13
170 -26 172 -28 2 -2 -4 -27 -14 -56 l-16 -53 -61 6 c-33 4 -76 10 -96 13
l-36 5 5 -103 c3 -60 9 -107 16 -111 6 -4 37 -8 68 -8 31 0 60 -5 63 -10 4 -6
-1 -33 -10 -60 l-17 -50 -60 0 -61 0 7 -52 c3 -29 6 -77 6 -105 l0 -53 111 0
111 0 -7 -36 c-16 -89 -5 -84 -183 -84 l-159 0 -7 233 c-3 127 -9 310 -13 405
-3 100 -2 172 3 172 5 0 85 -11 178 -25z m1676 -5 c0 -5 -9 -34 -20 -63 l-20
-54 -91 -10 c-49 -6 -91 -12 -93 -14 -2 -2 -6 -48 -8 -103 l-4 -99 79 6 c72 6
78 5 72 -11 -4 -9 -14 -36 -22 -58 -15 -44 -35 -54 -104 -54 l-29 0 0 -100 0
-100 110 0 c61 0 110 -3 110 -7 0 -3 -8 -30 -17 -60 l-17 -53 -158 0 -158 0 0
223 c0 123 3 292 7 375 l6 152 36 1 c20 0 95 8 166 18 72 10 136 19 143 20 6
0 12 -3 12 -9z m-1265 -41 c83 -6 151 -12 153 -14 1 -1 -6 -24 -16 -51 -19
-48 -20 -49 -67 -52 l-47 -3 4 -310 3 -309 -62 0 c-53 0 -63 3 -64 18 0 9 -2
28 -4 42 -2 14 -4 147 -5 297 -1 304 5 283 -79 283 -26 0 -50 3 -54 6 -5 5 3
33 28 102 3 9 15 12 32 8 16 -3 96 -10 178 -17z m841 -24 l26 -26 -7 -317 c-6
-280 -9 -320 -24 -342 -18 -25 -19 -25 -195 -28 l-176 -2 0 297 c0 164 3 328
6 365 l7 66 135 1 c75 1 138 4 141 6 14 14 65 2 87 -20z"/>
<path d="M4664 2560 c-31 -12 -72 -65 -84 -108 -13 -49 -13 -142 1 -198 29
-113 162 -160 249 -87 52 44 64 77 65 183 0 111 -19 160 -74 197 -36 24 -114
31 -157 13z"/>
<path d="M5644 2562 c-46 -22 -81 -65 -90 -111 l-6 -31 167 0 167 0 -7 33
c-18 83 -55 116 -137 123 -39 4 -64 0 -94 -14z"/>
<path d="M1225 2289 c-388 -51 -711 -341 -807 -725 -31 -126 -31 -322 0 -448
100 -398 429 -683 840 -726 168 -18 327 10 489 85 116 54 170 91 262 179 125
120 205 253 258 423 25 81 27 101 27 263 0 162 -2 182 -27 263 -31 99 -88 218
-141 292 -93 130 -258 263 -404 325 -145 61 -345 89 -497 69z m348 -49 c440
-112 743 -541 697 -984 -24 -225 -102 -394 -259 -559 -122 -127 -275 -216
-448 -259 -110 -27 -301 -30 -410 -5 -283 62 -528 260 -649 521 -78 170 -104
387 -66 566 78 376 370 663 751 735 100 19 279 12 384 -15z"/>
<path d="M597 1762 c-21 -23 -21 -63 -2 -247 8 -77 15 -141 15 -142 0 -2 19
-3 43 -3 l42 1 117 158 c126 171 125 171 227 171 25 0 42 9 70 38 l36 37 -130
3 c-71 1 -140 0 -151 -2 -13 -4 -46 -43 -85 -103 l-64 -98 -5 85 c-3 47 -2 93
2 103 8 15 3 17 -45 17 -40 0 -58 -5 -70 -18z"/>
<path d="M1122 1628 c-16 -35 -46 -100 -67 -145 -49 -107 -45 -113 71 -113 82
0 84 0 99 30 24 46 20 53 -25 47 -22 -3 -40 -1 -40 3 0 5 20 51 44 104 67 144
67 136 2 136 l-56 0 -28 -62z"/>
<path d="M1332 1552 c-34 -75 -62 -144 -62 -153 0 -20 20 -29 64 -29 35 0 30
-10 153 268 l23 52 -58 0 -57 0 -63 -138z"/>
<path d="M1512 1555 c-34 -75 -62 -145 -62 -156 0 -20 32 -33 71 -27 26 3 29
9 94 151 35 77 48 97 64 97 12 0 21 -6 21 -14 0 -8 -22 -62 -50 -121 -27 -59
-50 -109 -50 -112 0 -2 26 -3 57 -1 l57 3 64 140 c46 101 61 144 54 155 -7 12
-36 16 -134 18 l-125 3 -61 -136z"/>
<path d="M1896 1638 c-13 -29 -42 -95 -65 -146 -53 -117 -51 -122 63 -122 l82
0 17 35 c19 40 11 50 -33 40 -34 -8 -34 -8 -19 34 10 28 15 31 55 31 38 0 45
4 59 30 21 40 20 40 -25 40 -45 0 -44 0 -29 34 10 20 20 26 57 28 36 2 46 7
53 26 8 22 8 22 -91 22 l-100 0 -24 -52z"/>
<path d="M971 1267 c-18 -9 -41 -48 -84 -144 -33 -73 -57 -139 -54 -148 5 -12
27 -15 119 -15 62 0 119 4 125 8 11 7 133 261 133 276 0 2 -7 12 -16 20 -19
20 -186 22 -223 3z"/>
<path d="M1286 1253 c-39 -78 -116 -257 -116 -273 0 -13 10 -19 36 -22 46 -5
58 5 89 75 18 41 30 57 44 57 31 0 33 -15 6 -72 l-25 -53 28 -5 c56 -11 76 -1
96 46 10 25 16 53 13 64 -3 13 0 20 10 20 11 0 83 132 83 154 0 2 -7 12 -16
20 -12 13 -39 16 -124 16 -109 0 -110 0 -124 -27z"/>
<path d="M1650 1267 c-17 -9 -41 -48 -82 -137 -32 -69 -57 -134 -55 -145 2
-19 11 -20 116 -23 81 -2 118 1 129 10 12 11 92 169 92 184 0 2 -29 4 -65 4
-65 0 -66 -1 -80 -32 -8 -20 -10 -35 -4 -39 13 -8 -9 -56 -29 -64 -33 -12 -33
14 -2 86 18 41 37 80 42 87 7 8 38 12 88 12 69 0 78 2 83 20 10 38 -17 50
-116 50 -53 0 -102 -6 -117 -13z"/>
<path d="M8749 2285 c-347 -54 -644 -301 -755 -629 -170 -499 91 -1046 582
-1216 153 -54 364 -68 509 -36 371 81 648 349 741 716 26 102 26 345 0 440
-50 186 -119 311 -240 438 -151 159 -336 254 -554 287 -115 18 -168 18 -283 0z
m371 -45 c337 -82 614 -371 684 -713 20 -95 21 -274 1 -364 -78 -369 -343
-640 -713 -730 -91 -22 -303 -22 -394 0 -329 80 -577 305 -684 619 -35 104
-47 204 -41 336 6 123 20 191 64 301 113 284 383 507 678 560 33 6 71 13 85
15 54 10 239 -4 320 -24z"/>
<path d="M8623 2151 c-71 -24 -122 -65 -147 -120 -21 -45 -21 -58 -24 -656 -3
-642 -1 -680 42 -745 31 -48 130 -100 201 -107 71 -7 108 9 132 55 17 35 18
81 18 762 0 790 0 786 -55 815 -38 20 -103 18 -167 -4z m47 -808 c0 -521 -2
-584 -16 -590 -38 -14 -39 -1 -39 598 0 499 2 581 15 589 39 24 40 11 40 -597z"/>
<path d="M8999 2155 c-46 -25 -52 -61 -57 -312 l-4 -233 30 0 c16 0 57 -3 91
-6 l61 -7 0 171 c0 176 6 201 38 168 15 -14 17 -42 16 -199 l0 -182 -117 -412
-117 -412 0 -111 0 -110 41 0 c68 0 209 38 289 78 l75 37 3 96 3 97 -83 -29
c-98 -34 -132 -37 -124 -11 3 9 30 107 60 217 30 110 73 265 96 345 39 136 42
155 47 306 7 186 -8 337 -37 395 -49 95 -226 160 -311 114z"/>
<path d="M8245 1898 c-102 -104 -155 -240 -155 -395 0 -29 3 -53 6 -53 3 0 25
12 50 26 l44 26 0 98 c0 83 3 101 20 121 l19 24 1 -132 c0 -123 -2 -140 -36
-250 -19 -65 -49 -147 -66 -183 -44 -94 -45 -119 -9 -197 42 -90 107 -178 181
-246 34 -31 64 -57 68 -57 4 0 7 38 6 85 l-1 85 -59 39 c-32 22 -69 49 -82 60
l-22 19 59 179 c100 298 102 307 101 547 0 218 -7 257 -44 264 -12 3 -39 -18
-81 -60z"/>
<path d="M9439 1943 c-11 -13 -15 -118 -17 -569 -3 -562 1 -628 34 -641 57
-22 209 190 234 326 13 70 13 503 0 572 -20 106 -121 272 -188 312 -37 21 -46
21 -63 0z m149 -228 c8 -18 12 -130 12 -371 0 -332 -4 -384 -30 -384 -6 0 -10
146 -10 390 0 215 4 390 8 390 5 0 14 -11 20 -25z"/>
<path d="M5130 1821 c-14 -27 -13 -104 2 -119 15 -15 53 -16 79 -2 16 9 19 22
19 75 l0 65 -45 0 c-34 0 -47 -5 -55 -19z"/>
<path d="M3403 925 c4 -142 7 -298 7 -347 l0 -88 66 0 66 0 -6 188 c-3 103 -9
251 -12 329 l-6 143 -42 10 c-22 6 -50 14 -60 17 -19 5 -19 -2 -13 -252z"/>
<path d="M5310 857 c0 -57 -3 -172 -7 -255 l-6 -152 66 0 67 0 0 158 c0 86 3
201 7 255 l6 97 -66 0 -67 0 0 -103z"/>
</g>
</svg>
